<?xml version="1.0" standalone="no"?>
<!DOCTYPE svg PUBLIC "-//W3C//DTD SVG 20010904//EN"
 "http://www.w3.org/TR/2001/REC-SVG-20010904/DTD/svg10.dtd">
<svg version="1.0" xmlns="http://www.w3.org/2000/svg"
 width="482.000000pt" height="482.000000pt" viewBox="0 0 482.000000 482.000000"
 preserveAspectRatio="xMidYMid meet">
<metadata>
Created by potrace 1.14, written by Peter Selinger 2001-2017
</metadata>
<g transform="translate(0.000000,482.000000) scale(0.100000,-0.100000)"
fill="#000000" stroke="none">
<path d="M2275 4080 c-255 -40 -469 -196 -580 -424 -103 -210 -102 -466 4
-681 96 -193 283 -344 501 -402 97 -26 282 -23 383 5 151 43 288 130 390 250
67 78 142 235 163 342 69 347 -116 703 -442 851 -119 54 -292 78 -419 59z"/>
<path d="M1184 2275 c-147 -32 -267 -99 -379 -210 -152 -152 -225 -327 -225
-540 0 -213 73 -388 225 -540 152 -152 327 -225 540 -225 306 0 571 172 699
452 153 332 38 737 -267 947 -74 51 -184 98 -269 115 -92 19 -240 20 -324 1z"/>
<path d="M3315 2273 c-38 -8 -103 -30 -143 -49 -424 -196 -579 -696 -341
-1102 44 -73 178 -207 251 -251 255 -149 551 -149 806 0 73 44 207 178 251
251 160 273 147 599 -33 851 -107 151 -280 264 -458 301 -95 20 -240 19 -333
-1z"/>
</g>
</svg>
